<svg xmlns="http://www.w3.org/2000/svg" viewBox="0 0 360 520" role="img" aria-label="Ornement floral aquarelle">
  <defs>
    <filter id="soften" x="-20%" y="-20%" width="140%" height="140%">
      <feGaussianBlur stdDeviation="0.7"/>
    </filter>
    <linearGradient id="leaf" x1="0" x2="1" y1="0" y2="1">
      <stop offset="0" stop-color="#b6c0b6"/>
      <stop offset="0.52" stop-color="#7f9187"/>
      <stop offset="1" stop-color="#5f746a"/>
    </linearGradient>
    <radialGradient id="petal" cx="45%" cy="40%" r="70%">
      <stop offset="0" stop-color="#fde7dc"/>
      <stop offset="0.58" stop-color="#f3b9a5"/>
      <stop offset="1" stop-color="#d89180"/>
    </radialGradient>
    <radialGradient id="wash" cx="50%" cy="50%" r="50%">
      <stop offset="0" stop-color="#f3b9a5" stop-opacity="0.22"/>
      <stop offset="1" stop-color="#f3b9a5" stop-opacity="0"/>
    </radialGradient>
  </defs>

  <g fill="none" stroke="#b9872d" stroke-linecap="round" stroke-linejoin="round">
    <path d="M22 8 C56 74 72 146 60 222 C51 282 65 343 118 396 C158 435 211 456 328 498" stroke-width="2.2" opacity="0.65"/>
    <path d="M39 72 C89 72 143 93 175 133" stroke-width="1.4" opacity="0.55"/>
    <path d="M58 190 C105 205 142 236 164 279" stroke-width="1.4" opacity="0.5"/>
    <path d="M103 377 C148 352 197 343 248 351" stroke-width="1.4" opacity="0.48"/>
    <path d="M138 416 C164 391 194 378 230 375" stroke-width="1.2" opacity="0.44"/>
  </g>

  <g filter="url(#soften)" opacity="0.95">
    <ellipse cx="56" cy="52" rx="19" ry="44" fill="url(#leaf)" transform="rotate(-35 56 52)" opacity="0.62"/>
    <ellipse cx="86" cy="97" rx="20" ry="46" fill="url(#leaf)" transform="rotate(49 86 97)" opacity="0.58"/>
    <ellipse cx="50" cy="145" rx="18" ry="39" fill="url(#leaf)" transform="rotate(-54 50 145)" opacity="0.55"/>
    <ellipse cx="95" cy="171" rx="17" ry="43" fill="url(#leaf)" transform="rotate(48 95 171)" opacity="0.58"/>
    <ellipse cx="86" cy="250" rx="18" ry="43" fill="url(#leaf)" transform="rotate(-39 86 250)" opacity="0.56"/>
    <ellipse cx="127" cy="299" rx="20" ry="48" fill="url(#leaf)" transform="rotate(42 127 299)" opacity="0.58"/>
    <ellipse cx="176" cy="364" rx="19" ry="45" fill="url(#leaf)" transform="rotate(-57 176 364)" opacity="0.56"/>
    <ellipse cx="231" cy="406" rx="21" ry="49" fill="url(#leaf)" transform="rotate(41 231 406)" opacity="0.6"/>
    <ellipse cx="284" cy="464" rx="19" ry="42" fill="url(#leaf)" transform="rotate(-47 284 464)" opacity="0.55"/>
  </g>

  <g opacity="0.95">
    <circle cx="125" cy="135" r="48" fill="url(#wash)"/>
    <ellipse cx="125" cy="94" rx="19" ry="46" fill="url(#petal)" transform="rotate(-3 125 94)" opacity="0.72"/>
    <ellipse cx="161" cy="117" rx="19" ry="45" fill="url(#petal)" transform="rotate(55 161 117)" opacity="0.72"/>
    <ellipse cx="147" cy="158" rx="20" ry="44" fill="url(#petal)" transform="rotate(125 147 158)" opacity="0.75"/>
    <ellipse cx="102" cy="157" rx="19" ry="42" fill="url(#petal)" transform="rotate(211 102 157)" opacity="0.72"/>
    <ellipse cx="88" cy="116" rx="18" ry="42" fill="url(#petal)" transform="rotate(285 88 116)" opacity="0.7"/>
    <circle cx="125" cy="132" r="13" fill="#c48a44" opacity="0.75"/>
    <g fill="#7a4c22" opacity="0.7">
      <circle cx="115" cy="125" r="2.1"/>
      <circle cx="123" cy="121" r="2.2"/>
      <circle cx="132" cy="124" r="2"/>
      <circle cx="135" cy="133" r="2.1"/>
      <circle cx="128" cy="140" r="2"/>
      <circle cx="118" cy="139" r="2.1"/>
    </g>
  </g>

  <g opacity="0.92">
    <circle cx="255" cy="390" r="64" fill="url(#wash)"/>
    <ellipse cx="254" cy="333" rx="24" ry="58" fill="url(#petal)" transform="rotate(-6 254 333)" opacity="0.72"/>
    <ellipse cx="303" cy="365" rx="25" ry="58" fill="url(#petal)" transform="rotate(56 303 365)" opacity="0.74"/>
    <ellipse cx="284" cy="421" rx="25" ry="56" fill="url(#petal)" transform="rotate(128 284 421)" opacity="0.76"/>
    <ellipse cx="225" cy="420" rx="24" ry="54" fill="url(#petal)" transform="rotate(213 225 420)" opacity="0.72"/>
    <ellipse cx="205" cy="365" rx="23" ry="54" fill="url(#petal)" transform="rotate(286 205 365)" opacity="0.7"/>
    <circle cx="255" cy="384" r="17" fill="#c48a44" opacity="0.74"/>
    <g fill="#7a4c22" opacity="0.75">
      <circle cx="241" cy="374" r="2.5"/>
      <circle cx="252" cy="370" r="2.5"/>
      <circle cx="263" cy="373" r="2.4"/>
      <circle cx="270" cy="384" r="2.5"/>
      <circle cx="260" cy="395" r="2.3"/>
      <circle cx="247" cy="394" r="2.5"/>
    </g>
  </g>

  <g fill="#b9872d" opacity="0.78">
    <circle cx="185" cy="75" r="4"/>
    <circle cx="203" cy="103" r="2.5"/>
    <circle cx="225" cy="119" r="3.2"/>
    <circle cx="64" cy="314" r="3.4"/>
    <circle cx="81" cy="337" r="2.4"/>
    <circle cx="316" cy="330" r="3.7"/>
    <circle cx="337" cy="361" r="2.8"/>
    <circle cx="300" cy="116" r="2.7"/>
    <circle cx="278" cy="95" r="2"/>
  </g>

  <g fill="none" stroke="#b9872d" stroke-linecap="round" opacity="0.56">
    <path d="M198 63 c10 -18 24 -27 42 -31"/>
    <path d="M208 69 c11 -8 22 -12 34 -11"/>
    <path d="M76 309 c-15 -18 -22 -36 -21 -55"/>
    <path d="M70 310 c-10 -8 -22 -13 -36 -13"/>
    <path d="M313 319 c18 -18 27 -39 27 -64"/>
    <path d="M304 321 c18 -7 34 -8 49 -2"/>
  </g>
</svg>
